<svg xmlns="http://www.w3.org/2000/svg" viewBox="0 0 13.62 10.79">
  <path d="M5.39 0a5.39 5.39 0 0 1 5.27 6.55 2 2 0 0 1 3 0 .57.57 0 0 0-.4.88 5.31 5.31 0 0 0-2.66-.54l-.06.18a3.28 3.28 0 0 1 2.62 1 2.44 2.44 0 0 1-.77 1.93 2 2 0 0 0-2.11-2.29A5.39 5.39 0 1 1 5.39 0zM3.28 7.17a9.63 9.63 0 0 1 2.11-.57 9.62 9.62 0 0 1 2.11.57A1.89 1.89 0 0 0 9.16 7 2.16 2.16 0 0 0 10 4.49a2.1 2.1 0 0 0-1.7-1.08A2.73 2.73 0 0 0 6.36 4a2.72 2.72 0 0 1-1.93 0 2.73 2.73 0 0 0-1.94-.55A2.11 2.11 0 0 0 .78 4.49 2.16 2.16 0 0 0 1.62 7a1.89 1.89 0 0 0 1.66.14z"></path>
  <path d="M1.82 4.92a4 4 0 0 0 1.12.43.61.61 0 0 0 1.19.08l.45-.06a3.94 3.94 0 0 1-2.5-1 .58.58 0 0 0-.26.54zm7.18 0a4 4 0 0 1-1.12.43.61.61 0 0 1-1.19.08l-.45-.06a3.94 3.94 0 0 0 2.5-1 .58.58 0 0 1 .26.55z"></path>
</svg>
